<?xml version="1.0" encoding="iso-8859-1"?>
<!-- Generator: Adobe Illustrator 16.0.0, SVG Export Plug-In . SVG Version: 6.00 Build 0)  -->
<!DOCTYPE svg PUBLIC "-//W3C//DTD SVG 1.1//EN" "http://www.w3.org/Graphics/SVG/1.1/DTD/svg11.dtd">
<svg version="1.1" id="Capa_1" xmlns="http://www.w3.org/2000/svg" xmlns:xlink="http://www.w3.org/1999/xlink" x="0px" y="0px"
	 width="64px" height="64px" viewBox="0 0 28.874 28.874" style="enable-background:new 0 0 28.874 28.874;"
	 xml:space="preserve">
<g>
	<path fill="tomato" d="M28.848,16.29c-0.111-0.415-0.53-0.663-0.958-0.552l-6.583,1.763l-2.28-1.316l2.789-2.717
		c0.212-0.207,0.288-0.519,0.196-0.801s-0.335-0.488-0.63-0.531l-1.113-0.163l1.036-0.598l6.584,1.764
		c0.067,0.018,0.137,0.026,0.202,0.026c0.346,0,0.662-0.23,0.756-0.58c0.11-0.417-0.137-0.844-0.553-0.956l-5.076-1.359l2.74-1.583
		c0.374-0.216,0.502-0.694,0.286-1.066c-0.216-0.374-0.691-0.504-1.067-0.286L22.44,8.915l1.36-5.073
		c0.11-0.417-0.138-0.846-0.553-0.957c-0.422-0.111-0.846,0.137-0.957,0.552l-1.764,6.583l-2.754,1.59l-0.708-0.103L15.218,7.76
		V6.954l4.819-4.818c0.305-0.305,0.305-0.8,0-1.105c-0.306-0.305-0.801-0.305-1.106,0l-3.714,3.713V1.583
		c0-0.431-0.35-0.781-0.781-0.781c-0.432,0-0.781,0.35-0.781,0.781v3.165L9.939,1.032c-0.304-0.304-0.799-0.305-1.105,0
		c-0.305,0.304-0.305,0.8,0,1.105l4.82,4.821v0.799l-1.85,3.751l-0.704,0.102l-2.755-1.591L6.583,3.437
		c-0.11-0.416-0.53-0.664-0.957-0.553C5.21,2.995,4.961,3.424,5.074,3.84l1.358,5.074L3.695,7.333
		C3.321,7.116,2.843,7.245,2.628,7.618C2.413,7.992,2.541,8.469,2.914,8.685l2.741,1.583l-5.076,1.359
		c-0.416,0.112-0.665,0.541-0.552,0.956c0.094,0.349,0.41,0.58,0.755,0.58c0.065,0,0.134-0.008,0.202-0.026l6.585-1.763l1.035,0.598
		L7.49,12.134c-0.295,0.043-0.54,0.249-0.63,0.531c-0.093,0.282-0.016,0.594,0.197,0.801l2.79,2.72l-2.28,1.317l-6.581-1.765
		c-0.421-0.111-0.846,0.136-0.958,0.552s0.135,0.846,0.553,0.957l5.071,1.36l-2.737,1.581c-0.373,0.216-0.501,0.693-0.286,1.067
		c0.145,0.251,0.408,0.391,0.677,0.391c0.132,0,0.267-0.034,0.39-0.104l2.741-1.583l-1.361,5.075
		c-0.111,0.416,0.135,0.845,0.552,0.957c0.068,0.018,0.136,0.026,0.202,0.026c0.346,0,0.662-0.23,0.755-0.58l1.766-6.586
		l1.583-0.913L9.441,20.81c-0.05,0.293,0.07,0.588,0.312,0.763c0.238,0.175,0.56,0.197,0.822,0.059l3.081-1.619v1.902l-4.82,4.82
		c-0.305,0.306-0.305,0.801,0,1.106c0.305,0.305,0.8,0.305,1.105,0l3.715-3.717v3.165c0,0.432,0.35,0.781,0.781,0.781
		c0.431,0,0.781-0.35,0.781-0.781V24.13l3.713,3.714c0.153,0.151,0.353,0.229,0.553,0.229s0.399-0.075,0.553-0.229
		c0.305-0.306,0.305-0.801,0-1.106l-4.819-4.817v-1.904l3.078,1.617c0.113,0.062,0.238,0.091,0.363,0.091
		c0.162,0,0.325-0.05,0.459-0.149c0.24-0.175,0.361-0.47,0.312-0.763l-0.493-2.873l1.587,0.915l1.765,6.584
		c0.094,0.35,0.409,0.58,0.755,0.58c0.065,0,0.134-0.009,0.202-0.026c0.416-0.112,0.664-0.541,0.552-0.957l-1.36-5.075l2.739,1.583
		c0.123,0.069,0.258,0.104,0.39,0.104c0.271,0,0.533-0.14,0.678-0.391c0.216-0.374,0.087-0.852-0.286-1.067l-2.737-1.58l5.074-1.359
		C28.711,17.136,28.958,16.708,28.848,16.29z M14.798,18.03c-0.112-0.06-0.238-0.09-0.364-0.09c-0.125,0-0.25,0.03-0.363,0.09
		l-2.823,1.483l0.539-3.144c0.043-0.253-0.041-0.511-0.225-0.692l-2.283-2.225l3.156-0.458c0.255-0.037,0.475-0.197,0.588-0.427
		l1.41-2.86l1.411,2.86c0.114,0.23,0.334,0.391,0.589,0.427l3.154,0.458l-2.281,2.225c-0.185,0.18-0.269,0.438-0.225,0.692
		l0.538,3.144L14.798,18.03z"/>
</g>
<g>
</g>
<g>
</g>
<g>
</g>
<g>
</g>
<g>
</g>
<g>
</g>
<g>
</g>
<g>
</g>
<g>
</g>
<g>
</g>
<g>
</g>
<g>
</g>
<g>
</g>
<g>
</g>
<g>
</g>
</svg>
